
<svg width="961px" height="172px" viewBox="0 0 961 172" version="1.1" xmlns="http://www.w3.org/2000/svg" xmlns:xlink="http://www.w3.org/1999/xlink">
    <!-- Generator: Sketch 46.2 (44496) - http://www.bohemiancoding.com/sketch -->
    <desc>Created with Sketch.</desc>
    <defs></defs>
    <g id="Page-1" stroke="none" stroke-width="1" fill="none" fill-rule="evenodd">
        <g id="logo" fill="#FFFFFF">
            <g id="Group-23" fill-rule="nonzero">
                <path d="M38.5668239,52.5511807 C39.8155466,47.5783775 44.5384656,43.6410281 52.6044271,40.8503454 C60.3818502,38.1591325 70.9286903,36.6387631 83.9522672,36.3306827 C88.0532409,36.2339759 95.3799089,36.2595341 101.330842,36.4052851 C91.29067,50.4505703 85.3811538,67.6533333 85.3811538,86.239004 C85.3811538,89.5809157 85.5730526,92.8772369 85.9444251,96.118988 C80.5788522,93.5631647 75.5501377,90.958988 70.896247,88.3168193 C59.5652449,81.883743 50.9905445,75.5542811 45.4082227,69.502506 C39.6188158,63.2269237 37.3174109,57.5239839 38.5668239,52.5511807 L38.5668239,52.5511807 Z M241.411433,135.21894 C251.085065,121.333912 256.758504,104.450281 256.758504,86.239004 C256.758504,82.5800321 256.52864,78.9756305 256.084787,75.4375422 C261.370978,78.0728032 267.815464,81.4340562 271.415982,83.4787149 C282.746294,89.9111004 291.321684,96.241253 296.903316,102.292337 C302.692032,108.567229 304.994128,114.270859 303.745405,119.244353 C302.495992,124.217157 297.773073,128.153124 289.707111,130.944498 C281.928998,133.635711 271.382848,135.15608 258.359271,135.46347 C253.009575,135.59057 247.34718,135.506297 241.411433,135.21894 L241.411433,135.21894 Z M9.15591903,68.6107309 C16.2996619,76.3576386 27.2786194,84.4623614 41.7863057,92.7017831 C55.7321012,100.620691 72.2057146,108.248787 90.4271255,115.293189 C102.322779,148.350345 133.937759,171.987566 171.070174,171.987566 C187.048854,171.987566 202.005915,167.60951 214.809291,159.989703 C214.809291,159.989703 172.0842,152.901092 148.784374,134.172434 C151.969342,135.026217 155.176399,135.859968 158.403474,136.670924 C203.763377,148.079566 247.635719,153.91306 281.937972,153.099341 C298.614528,152.705606 312.118543,150.757655 322.07381,147.310056 C332.366626,143.7471 338.391419,138.732161 339.981142,132.404771 C341.569484,126.078072 338.630257,118.808482 331.243534,110.798394 C324.099101,103.052177 313.121524,94.9467631 298.613148,86.7073414 C286.991536,80.1084819 269.737903,72.1868112 254.328016,65.8739277 C245.192806,28.3475341 211.382034,0.49113253 171.070174,0.49113253 C145.97147,0.49113253 123.39299,11.2898313 107.721486,28.4974297 C96.2517368,27.6857831 71.5982652,25.9975582 58.4607915,26.3090924 C41.7849251,26.7048996 28.2816012,28.6528514 18.3256437,32.0990683 C8.03282794,35.6620241 2.00803441,40.6776546 0.418311741,47.0043534 C-1.17003036,53.331743 1.76919636,60.6006426 9.15591903,68.6107309 L9.15591903,68.6107309 Z" id="Fill-22"></path>
                <path d="M69.5343178,138.893108 C69.5343178,146.614458 63.2796599,152.874153 55.5643623,152.874153 C47.8483745,152.874153 41.5937166,146.614458 41.5937166,138.893108 C41.5937166,131.17245 47.8483745,124.912755 55.5643623,124.912755 C63.2796599,124.912755 69.5343178,131.17245 69.5343178,138.893108" id="Fill-24"></path>
                <path d="M287.204144,44.3684016 C287.204144,49.005494 283.447621,52.7653173 278.813059,52.7653173 C274.179877,52.7653173 270.422664,49.005494 270.422664,44.3684016 C270.422664,39.732 274.179877,35.9721767 278.813059,35.9721767 C283.447621,35.9721767 287.204144,39.732 287.204144,44.3684016" id="Fill-25"></path>
                <path d="M88.1222692,152.879679 C88.1222692,155.747727 85.798085,158.073526 82.9306478,158.073526 C80.0632105,158.073526 77.7390263,155.747727 77.7390263,152.879679 C77.7390263,150.010249 80.0632105,147.683759 82.9306478,147.683759 C85.798085,147.683759 88.1222692,150.010249 88.1222692,152.879679" id="Fill-26"></path>
            </g>
            <g id="ASTRAL" transform="translate(365.000000, 36.000000)">
                <g id="path-2-link">
                    <path d="M19.456,99 L0.736,99 L34.864,12.6 C36.688009,7.991977 39.255983,4.752009 42.568,2.88 C45.880017,1.007991 50.127974,0.072 55.312,0.072 C60.400025,0.072 64.599983,1.007991 67.912,2.88 C71.224017,4.752009 73.743991,7.991977 75.472,12.6 L108.304,99 L89.44,99 L59.92,20.808 C59.055996,18.599989 57.472012,17.496 55.168,17.496 C52.863988,17.496 51.232005,18.599989 50.272,20.808 L19.456,99 Z M197.728,1.8 L197.728,18.792 L147.904,18.792 C143.487978,18.792 140.27201,19.871989 138.256,22.032 C136.23999,24.192011 135.232,26.951983 135.232,30.312 C135.232,31.752007 135.447998,33.167993 135.88,34.56 C136.312002,35.952007 137.079994,37.199994 138.184,38.304 C139.288006,39.408006 140.751991,40.271997 142.576,40.896 C144.400009,41.520003 146.751986,41.832 149.632,41.832 L172.384,41.832 C179.008033,41.832 184.431979,42.671992 188.656,44.352 C192.880021,46.032008 196.215988,48.215987 198.664,50.904 C201.112012,53.592013 202.791995,56.663983 203.704,60.12 C204.616005,63.576017 205.072,67.031983 205.072,70.488 C205.072,74.616021 204.496006,78.407983 203.344,81.864 C202.191994,85.320017 200.368012,88.319987 197.872,90.864 C195.375988,93.408013 192.184019,95.399993 188.296,96.84 C184.407981,98.280007 179.680028,99 174.112,99 L119.968,99 L119.968,82.008 L174.688,82.008 C179.296023,82.008 182.679989,80.880011 184.84,78.624 C187.000011,76.367989 188.08,73.464018 188.08,69.912 C188.08,68.375992 187.840002,66.864007 187.36,65.376 C186.879998,63.887993 186.064006,62.592006 184.912,61.488 C183.759994,60.383994 182.20001,59.496003 180.232,58.824 C178.26399,58.151997 175.792015,57.816 172.816,57.816 L150.208,57.816 C143.679967,57.816 138.352021,57.000008 134.224,55.368 C130.095979,53.735992 126.856012,51.576013 124.504,48.888 C122.151988,46.199987 120.520005,43.176017 119.608,39.816 C118.695995,36.455983 118.24,33.096017 118.24,29.736 C118.24,25.70398 118.791994,21.984017 119.896,18.576 C121.000006,15.167983 122.775988,12.216012 125.224,9.72 C127.672012,7.223988 130.815981,5.280007 134.656,3.888 C138.496019,2.495993 143.103973,1.8 148.48,1.8 L197.728,1.8 Z M290.176,1.8 L290.176,18.792 L261.808,18.792 L261.808,99 L244.672,99 L244.672,18.792 L216.304,18.792 L216.304,1.8 L290.176,1.8 Z M358.576,1.8 C364.048027,1.8 368.75198,2.591992 372.688,4.176 C376.62402,5.760008 379.863987,7.871987 382.408,10.512 C384.952013,13.152013 386.823994,16.247982 388.024,19.8 C389.224006,23.352018 389.824,27.047981 389.824,30.888 C389.824,33.960015 389.440004,37.007985 388.672,40.032 C387.903996,43.056015 386.704008,45.887987 385.072,48.528 C383.439992,51.168013 381.328013,53.49599 378.736,55.512 C376.143987,57.52801 372.976019,59.063995 369.232,60.12 L391.84,99 L372.976,99 L350.8,61.416 L325.456,61.416 C323.823992,61.416 323.008,62.231992 323.008,63.864 L323.008,99 L306.016,99 L306.016,60.552 C306.016,55.079973 307.215988,51.144012 309.616,48.744 C312.016012,46.343988 315.903973,45.144 321.28,45.144 L359.152,45.144 C361.552012,45.144 363.615991,44.760004 365.344,43.992 C367.072009,43.223996 368.463995,42.216006 369.52,40.968 C370.576005,39.719994 371.367997,38.280008 371.896,36.648 C372.424003,35.015992 372.688,33.336009 372.688,31.608 C372.688,28.151983 371.608011,25.152013 369.448,22.608 C367.287989,20.063987 363.856024,18.792 359.152,18.792 L305.872,18.792 L305.872,1.8 L358.576,1.8 Z M418.624,99 L399.904,99 L434.032,12.6 C435.856009,7.991977 438.423983,4.752009 441.736,2.88 C445.048017,1.007991 449.295974,0.072 454.48,0.072 C459.568025,0.072 463.767983,1.007991 467.08,2.88 C470.392017,4.752009 472.911991,7.991977 474.64,12.6 L507.472,99 L488.608,99 L459.088,20.808 C458.223996,18.599989 456.640012,17.496 454.336,17.496 C452.031988,17.496 450.400005,18.599989 449.44,20.808 L418.624,99 Z M537.856,1.8 L537.856,65.304 C537.856,67.608012 538.167997,69.79199 538.792,71.856 C539.416003,73.92001 540.49599,75.695993 542.032,77.184 C543.56801,78.672007 545.60799,79.847996 548.152,80.712 C550.69601,81.576004 553.88798,82.008 557.728,82.008 L595.456,82.008 L595.456,99 L556.72,99 C550.28797,99 544.79202,98.160008 540.232,96.48 C535.671977,94.799992 531.952014,92.472015 529.072,89.496 C526.191986,86.519985 524.104006,82.99202 522.808,78.912 C521.511994,74.83198 520.864,70.344024 520.864,65.448 L520.864,1.8 L537.856,1.8 Z" id="path-2"></path>
                </g>
            </g>
        </g>
    </g>
</svg>