<?xml version="1.0" encoding="UTF-8" standalone="no"?>
<svg width="2192px" height="436px" viewBox="0 0 2192 436" version="1.1" xmlns="http://www.w3.org/2000/svg" xmlns:xlink="http://www.w3.org/1999/xlink" xmlns:sketch="http://www.bohemiancoding.com/sketch/ns">
    <!-- Generator: Sketch 3.0.4 (8053) - http://www.bohemiancoding.com/sketch -->
    <title>Astral + rocket61</title>
    <desc>Created with Sketch.</desc>
    <defs></defs>
    <g id="Page-1" stroke="none" stroke-width="1" fill="none" fill-rule="evenodd" sketch:type="MSPage">
        <g id="Astral-+-rocket61" sketch:type="MSLayerGroup" transform="translate(-127.000000, 0.000000)" fill="#FFFFFF">
            <g id="Astral" transform="translate(418.000000, 66.000000)" sketch:type="MSShapeGroup">
                <path d="M235.781101,50.70625 C219.364456,17.575 200.449625,0.11875 166.188798,0.11875 C131.927972,0.11875 112.299374,17.575 96.239612,50.70625 L0.237922403,247 L29.8592616,247 L65.1907384,174.68125 L266.829975,174.68125 L302.161452,247 L332.139675,247 L235.781101,50.70625 Z M254.339049,150.1 L77.6816646,150.1 L123.362766,56.7625 C132.64174,37.525 144.418899,25.05625 166.188798,25.05625 C187.601815,25.05625 199.378974,37.525 208.657947,56.7625 L254.339049,150.1 Z M349.745932,222.0625 L349.745932,247 L562.448561,247 C624.189424,247 651.669462,221.70625 651.669462,181.09375 C651.669462,137.63125 620.263705,119.4625 562.448561,114.475 L444.676971,104.5 C399.709637,100.58125 382.936108,89.18125 382.936108,64.95625 C382.936108,39.6625 401.494055,28.2625 433.970463,28.2625 L634.539049,28.2625 L634.539049,3.325 L436.111765,3.325 C389.360013,3.325 354.742303,21.85 354.742303,65.66875 C354.742303,105.925 383.292991,125.51875 437.539299,129.79375 L558.522841,139.76875 C604.203942,143.6875 623.475657,156.5125 623.475657,182.1625 C623.475657,207.8125 604.560826,222.0625 563.876095,222.0625 L349.745932,222.0625 Z M817.025532,247 L817.025532,28.2625 L947.644931,28.2625 L947.644931,3.325 L658.926095,3.325 L658.926095,28.2625 L789.545494,28.2625 L789.545494,247 L817.025532,247 Z M975.24393,247 L1003.08085,247 L1003.08085,155.0875 L1182.23642,155.0875 C1219.35232,155.0875 1236.83961,175.39375 1236.83961,201.4 L1236.83961,247 L1265.3903,247 L1265.3903,201.75625 C1265.3903,173.6125 1249.68742,151.525 1217.5679,142.975 C1251.11496,135.49375 1271.81421,111.625 1271.81421,76.35625 C1271.81421,34.675 1243.6204,3.325 1184.37772,3.325 L975.24393,3.325 L975.24393,247 Z M1003.08085,130.50625 L1003.08085,27.90625 L1186.51902,27.90625 C1230.05882,27.90625 1243.6204,55.3375 1243.6204,79.20625 C1243.6204,103.43125 1229.34506,130.50625 1186.51902,130.50625 L1003.08085,130.50625 Z M1529.96001,50.70625 C1513.54337,17.575 1494.62854,0.11875 1460.36771,0.11875 C1426.10688,0.11875 1406.47829,17.575 1390.41852,50.70625 L1294.41683,247 L1324.03817,247 L1359.36965,174.68125 L1561.00889,174.68125 L1596.34036,247 L1626.31859,247 L1529.96001,50.70625 Z M1548.51796,150.1 L1371.86058,150.1 L1417.54168,56.7625 C1426.82065,37.525 1438.59781,25.05625 1460.36771,25.05625 C1481.78073,25.05625 1493.55788,37.525 1502.83686,56.7625 L1548.51796,150.1 Z M1627.03235,3.325 L1627.03235,150.8125 C1627.03235,218.85625 1662.72071,247 1741.59199,247 L1900.40519,247 L1900.40519,219.925 L1741.59199,219.925 C1678.78048,219.925 1654.86927,201.04375 1654.86927,150.8125 L1654.86927,3.325 L1627.03235,3.325 Z" id="ASTRAL"></path>
            </g>
            <g id="rocket61" transform="translate(218.000000, 218.000000) rotate(-45.000000) translate(-218.000000, -218.000000) translate(64.000000, 64.000000)" sketch:type="MSShapeGroup">
                <path d="M308.166833,0.0128333333 C308.166833,0.0128333333 261.954,-1.28333333 215.766833,21.8295 C201.650167,28.2461667 186.250167,38.5128333 173.416833,51.3461667 C152.665333,72.0976667 120.428,110.3025 95.0436667,141.1795 L38.6668333,141.1795 L13.0001667,179.6795 L56.5308333,191.447667 C56.6463333,193.0005 57.0698333,195.195 58.2633333,198.172333 L51.513,213.033333 C51.513,213.033333 48.9463333,218.166667 68.1963333,238.7 C88.7296667,259.246167 95.1463333,256.666667 95.1463333,256.666667 L111.098167,249.415833 C113.485167,250.160167 115.269,250.416833 116.424,250.416833 L128.513,295.166667 L167.013,269.5 L167.013,211.390667 C198.108167,186.250167 236.261667,154.667333 256.846333,134.75 C269.679667,121.916667 279.946333,106.516667 287.6335,92.4 C309.450167,46.2128333 308.166833,0.0128333333 308.166833,0.0128333333 L308.166833,0.0128333333 Z M218.3335,115.512833 C204.204,115.512833 192.666833,103.962833 192.666833,89.8461667 C192.666833,75.7166667 204.204,64.1795 218.3335,64.1795 C232.450167,64.1795 244.000167,75.7166667 244.000167,89.8461667 C244.000167,103.962833 232.450167,115.512833 218.3335,115.512833 L218.3335,115.512833 Z M83.5835,269.512833 C86.1501667,270.796167 87.4335,272.0795 90.0001667,273.362833 C87.4335,275.9295 84.8668333,279.7795 82.2873333,282.346167 C52.7706667,311.862833 0.166833333,308.012833 0.166833333,308.012833 C0.166833333,308.012833 -3.68316667,255.383333 25.8335,225.8795 C28.4001667,223.312833 32.2501667,220.759 34.8168333,218.1795 C36.1001667,220.746167 37.3706667,222.0295 38.6668333,224.596167 C19.4168333,248.966667 21.9835,286.196167 21.9835,286.196167 C21.9835,286.196167 59.2001667,288.762833 83.5835,269.512833 L83.5835,269.512833 Z" id="Shape"></path>
            </g>
        </g>
    </g>
</svg>