<?xml version="1.0" standalone="no"?>
<!DOCTYPE svg PUBLIC "-//W3C//DTD SVG 20010904//EN"
 "http://www.w3.org/TR/2001/REC-SVG-20010904/DTD/svg10.dtd">
<svg version="1.0" xmlns="http://www.w3.org/2000/svg"
 width="508.000000pt" height="508.000000pt" viewBox="0 0 508.000000 508.000000"
 preserveAspectRatio="xMidYMid meet">
<metadata>
Created by potrace 1.11, written by Peter Selinger 2001-2013
</metadata>
<g transform="translate(0.000000,508.000000) scale(0.100000,-0.100000)"
fill="#000000" stroke="none">
<path d="M2335 3801 c-243 -43 -476 -161 -655 -330 l-75 -70 -55 4 c-30 2 -98
7 -150 10 -52 3 -135 8 -185 11 -126 7 -450 8 -510 0 -27 -3 -75 -8 -105 -11
-86 -9 -207 -33 -300 -59 -78 -22 -173 -73 -220 -118 -103 -97 -104 -222 -4
-358 51 -70 202 -220 220 -220 7 0 14 -3 16 -8 4 -10 130 -100 191 -138 103
-62 128 -75 317 -171 211 -107 259 -129 422 -193 l106 -43 28 -66 c33 -79 100
-195 156 -271 43 -57 164 -182 233 -239 104 -86 290 -180 445 -224 119 -35
145 -38 320 -42 224 -5 389 30 577 122 86 41 108 63 65 63 -70 0 -378 87 -549
156 -100 40 -291 134 -318 156 -5 5 -25 20 -44 33 -36 26 -31 32 14 15 14 -5
36 -12 48 -14 12 -2 51 -12 87 -21 36 -9 76 -19 89 -21 12 -3 53 -12 90 -20
36 -9 75 -18 86 -20 11 -2 43 -8 70 -14 86 -18 99 -20 135 -26 19 -3 65 -12
101 -19 65 -14 152 -29 234 -40 22 -3 58 -8 80 -11 66 -10 78 -12 125 -18 25
-3 72 -9 105 -12 33 -3 76 -7 95 -9 232 -27 752 -27 915 0 73 12 91 15 115 21
62 13 76 16 87 18 7 1 16 5 19 9 4 4 14 7 22 7 20 0 128 49 177 79 180 115
163 313 -44 509 -99 94 -277 226 -381 283 -19 11 -51 29 -70 41 -85 50 -358
182 -573 275 l-88 38 -34 102 c-19 56 -47 128 -64 161 -103 204 -286 406 -467
515 -136 82 -251 129 -404 167 -120 30 -357 35 -495 11z m-827 -520 c2 0 -5
-13 -16 -28 -91 -131 -163 -310 -197 -493 -18 -93 -25 -261 -14 -322 4 -22 2
-38 -3 -38 -15 0 -180 85 -266 137 -193 117 -324 227 -390 327 -114 175 -26
308 248 374 105 26 132 30 245 38 50 3 91 7 92 8 2 1 297 -1 301 -3z m2697
-797 c63 -42 144 -104 179 -138 185 -179 203 -316 53 -416 -53 -36 -149 -74
-217 -86 -92 -17 -142 -25 -195 -30 -85 -9 -393 -11 -406 -3 -6 4 0 21 16 45
64 93 151 306 169 411 21 122 27 178 27 271 0 59 -2 119 -4 135 -4 27 -4 27
129 -42 73 -38 185 -104 249 -147z"/>
<path d="M4103 3274 c-37 -19 -73 -84 -67 -121 9 -46 32 -80 68 -97 55 -26 97
-21 138 17 110 101 -5 267 -139 201z"/>
<path d="M735 1939 c-16 -11 -36 -22 -43 -25 -7 -4 -24 -27 -39 -51 -38 -65
-38 -151 0 -215 38 -65 98 -99 174 -101 91 -1 156 42 194 128 46 103 -5 227
-111 271 -46 20 -137 16 -175 -7z"/>
<path d="M1181 1594 c-28 -35 -26 -69 4 -99 46 -46 121 -23 131 41 12 74 -88
117 -135 58z"/>
</g>
</svg>
