
<svg width="982px" height="188px" viewBox="86 246 982 188" version="1.1" xmlns="http://www.w3.org/2000/svg" xmlns:xlink="http://www.w3.org/1999/xlink">
    <!-- Generator: Sketch 39.1 (31720) - http://www.bohemiancoding.com/sketch -->
    <desc>Created with Sketch.</desc>
    <defs>
        <filter x="-50%" y="-50%" width="200%" height="200%" filterUnits="objectBoundingBox" id="filter-1">
            <feOffset dx="0" dy="0" in="SourceAlpha" result="shadowOffsetOuter1"></feOffset>
            <feGaussianBlur stdDeviation="4" in="shadowOffsetOuter1" result="shadowBlurOuter1"></feGaussianBlur>
            <feColorMatrix values="0 0 0 0 1   0 0 0 0 1   0 0 0 0 1  0 0 0 0.4 0" type="matrix" in="shadowBlurOuter1" result="shadowMatrixOuter1"></feColorMatrix>
            <feMerge>
                <feMergeNode in="shadowMatrixOuter1"></feMergeNode>
                <feMergeNode in="SourceGraphic"></feMergeNode>
            </feMerge>
        </filter>
        <path d="M479.456,389 L460.736,389 L494.864,302.6 C496.688009,297.991977 499.255983,294.752009 502.568,292.88 C505.880017,291.007991 510.127974,290.072 515.312,290.072 C520.400025,290.072 524.599983,291.007991 527.912,292.88 C531.224017,294.752009 533.743991,297.991977 535.472,302.6 L568.304,389 L549.44,389 L519.92,310.808 C519.055996,308.599989 517.472012,307.496 515.168,307.496 C512.863988,307.496 511.232005,308.599989 510.272,310.808 L479.456,389 Z M657.728,291.8 L657.728,308.792 L607.904,308.792 C603.487978,308.792 600.27201,309.871989 598.256,312.032 C596.23999,314.192011 595.232,316.951983 595.232,320.312 C595.232,321.752007 595.447998,323.167993 595.88,324.56 C596.312002,325.952007 597.079994,327.199994 598.184,328.304 C599.288006,329.408006 600.751991,330.271997 602.576,330.896 C604.400009,331.520003 606.751986,331.832 609.632,331.832 L632.384,331.832 C639.008033,331.832 644.431979,332.671992 648.656,334.352 C652.880021,336.032008 656.215988,338.215987 658.664,340.904 C661.112012,343.592013 662.791995,346.663983 663.704,350.12 C664.616005,353.576017 665.072,357.031983 665.072,360.488 C665.072,364.616021 664.496006,368.407983 663.344,371.864 C662.191994,375.320017 660.368012,378.319987 657.872,380.864 C655.375988,383.408013 652.184019,385.399993 648.296,386.84 C644.407981,388.280007 639.680028,389 634.112,389 L579.968,389 L579.968,372.008 L634.688,372.008 C639.296023,372.008 642.679989,370.880011 644.84,368.624 C647.000011,366.367989 648.08,363.464018 648.08,359.912 C648.08,358.375992 647.840002,356.864007 647.36,355.376 C646.879998,353.887993 646.064006,352.592006 644.912,351.488 C643.759994,350.383994 642.20001,349.496003 640.232,348.824 C638.26399,348.151997 635.792015,347.816 632.816,347.816 L610.208,347.816 C603.679967,347.816 598.352021,347.000008 594.224,345.368 C590.095979,343.735992 586.856012,341.576013 584.504,338.888 C582.151988,336.199987 580.520005,333.176017 579.608,329.816 C578.695995,326.455983 578.24,323.096017 578.24,319.736 C578.24,315.70398 578.791994,311.984017 579.896,308.576 C581.000006,305.167983 582.775988,302.216012 585.224,299.72 C587.672012,297.223988 590.815981,295.280007 594.656,293.888 C598.496019,292.495993 603.103973,291.8 608.48,291.8 L657.728,291.8 Z M750.176,291.8 L750.176,308.792 L721.808,308.792 L721.808,389 L704.672,389 L704.672,308.792 L676.304,308.792 L676.304,291.8 L750.176,291.8 Z M818.576,291.8 C824.048027,291.8 828.75198,292.591992 832.688,294.176 C836.62402,295.760008 839.863987,297.871987 842.408,300.512 C844.952013,303.152013 846.823994,306.247982 848.024,309.8 C849.224006,313.352018 849.824,317.047981 849.824,320.888 C849.824,323.960015 849.440004,327.007985 848.672,330.032 C847.903996,333.056015 846.704008,335.887987 845.072,338.528 C843.439992,341.168013 841.328013,343.49599 838.736,345.512 C836.143987,347.52801 832.976019,349.063995 829.232,350.12 L851.84,389 L832.976,389 L810.8,351.416 L785.456,351.416 C783.823992,351.416 783.008,352.231992 783.008,353.864 L783.008,389 L766.016,389 L766.016,350.552 C766.016,345.079973 767.215988,341.144012 769.616,338.744 C772.016012,336.343988 775.903973,335.144 781.28,335.144 L819.152,335.144 C821.552012,335.144 823.615991,334.760004 825.344,333.992 C827.072009,333.223996 828.463995,332.216006 829.52,330.968 C830.576005,329.719994 831.367997,328.280008 831.896,326.648 C832.424003,325.015992 832.688,323.336009 832.688,321.608 C832.688,318.151983 831.608011,315.152013 829.448,312.608 C827.287989,310.063987 823.856024,308.792 819.152,308.792 L765.872,308.792 L765.872,291.8 L818.576,291.8 Z M878.624,389 L859.904,389 L894.032,302.6 C895.856009,297.991977 898.423983,294.752009 901.736,292.88 C905.048017,291.007991 909.295974,290.072 914.48,290.072 C919.568025,290.072 923.767983,291.007991 927.08,292.88 C930.392017,294.752009 932.911991,297.991977 934.64,302.6 L967.472,389 L948.608,389 L919.088,310.808 C918.223996,308.599989 916.640012,307.496 914.336,307.496 C912.031988,307.496 910.400005,308.599989 909.44,310.808 L878.624,389 Z M997.856,291.8 L997.856,355.304 C997.856,357.608012 998.167997,359.79199 998.792,361.856 C999.416003,363.92001 1000.49599,365.695993 1002.032,367.184 C1003.56801,368.672007 1005.60799,369.847996 1008.152,370.712 C1010.69601,371.576004 1013.88798,372.008 1017.728,372.008 L1055.456,372.008 L1055.456,389 L1016.72,389 C1010.28797,389 1004.79202,388.160008 1000.232,386.48 C995.671977,384.799992 991.952014,382.472015 989.072,379.496 C986.191986,376.519985 984.104006,372.99202 982.808,368.912 C981.511994,364.83198 980.864,360.344024 980.864,355.448 L980.864,291.8 L997.856,291.8 Z" id="path-2"></path>
        <filter x="-50%" y="-50%" width="200%" height="200%" filterUnits="objectBoundingBox" id="filter-3">
            <feOffset dx="0" dy="0" in="SourceAlpha" result="shadowOffsetOuter1"></feOffset>
            <feGaussianBlur stdDeviation="4" in="shadowOffsetOuter1" result="shadowBlurOuter1"></feGaussianBlur>
            <feColorMatrix values="0 0 0 0 1   0 0 0 0 1   0 0 0 0 1  0 0 0 0.4 0" type="matrix" in="shadowBlurOuter1"></feColorMatrix>
        </filter>
    </defs>
    <g id="Group-23" filter="url(#filter-1)" stroke="none" stroke-width="1" fill="none" fill-rule="evenodd" transform="translate(95.000000, 254.000000)">
        <path d="M38.5668239,52.5511807 C39.8155466,47.5783775 44.5384656,43.6410281 52.6044271,40.8503454 C60.3818502,38.1591325 70.9286903,36.6387631 83.9522672,36.3306827 C88.0532409,36.2339759 95.3799089,36.2595341 101.330842,36.4052851 C91.29067,50.4505703 85.3811538,67.6533333 85.3811538,86.239004 C85.3811538,89.5809157 85.5730526,92.8772369 85.9444251,96.118988 C80.5788522,93.5631647 75.5501377,90.958988 70.896247,88.3168193 C59.5652449,81.883743 50.9905445,75.5542811 45.4082227,69.502506 C39.6188158,63.2269237 37.3174109,57.5239839 38.5668239,52.5511807 L38.5668239,52.5511807 Z M241.411433,135.21894 C251.085065,121.333912 256.758504,104.450281 256.758504,86.239004 C256.758504,82.5800321 256.52864,78.9756305 256.084787,75.4375422 C261.370978,78.0728032 267.815464,81.4340562 271.415982,83.4787149 C282.746294,89.9111004 291.321684,96.241253 296.903316,102.292337 C302.692032,108.567229 304.994128,114.270859 303.745405,119.244353 C302.495992,124.217157 297.773073,128.153124 289.707111,130.944498 C281.928998,133.635711 271.382848,135.15608 258.359271,135.46347 C253.009575,135.59057 247.34718,135.506297 241.411433,135.21894 L241.411433,135.21894 Z M9.15591903,68.6107309 C16.2996619,76.3576386 27.2786194,84.4623614 41.7863057,92.7017831 C55.7321012,100.620691 72.2057146,108.248787 90.4271255,115.293189 C102.322779,148.350345 133.937759,171.987566 171.070174,171.987566 C187.048854,171.987566 202.005915,167.60951 214.809291,159.989703 C214.809291,159.989703 172.0842,152.901092 148.784374,134.172434 C151.969342,135.026217 155.176399,135.859968 158.403474,136.670924 C203.763377,148.079566 247.635719,153.91306 281.937972,153.099341 C298.614528,152.705606 312.118543,150.757655 322.07381,147.310056 C332.366626,143.7471 338.391419,138.732161 339.981142,132.404771 C341.569484,126.078072 338.630257,118.808482 331.243534,110.798394 C324.099101,103.052177 313.121524,94.9467631 298.613148,86.7073414 C286.991536,80.1084819 269.737903,72.1868112 254.328016,65.8739277 C245.192806,28.3475341 211.382034,0.49113253 171.070174,0.49113253 C145.97147,0.49113253 123.39299,11.2898313 107.721486,28.4974297 C96.2517368,27.6857831 71.5982652,25.9975582 58.4607915,26.3090924 C41.7849251,26.7048996 28.2816012,28.6528514 18.3256437,32.0990683 C8.03282794,35.6620241 2.00803441,40.6776546 0.418311741,47.0043534 C-1.17003036,53.331743 1.76919636,60.6006426 9.15591903,68.6107309 L9.15591903,68.6107309 Z" id="Fill-22" fill="#FFFFFF"></path>
        <path d="M69.5343178,138.893108 C69.5343178,146.614458 63.2796599,152.874153 55.5643623,152.874153 C47.8483745,152.874153 41.5937166,146.614458 41.5937166,138.893108 C41.5937166,131.17245 47.8483745,124.912755 55.5643623,124.912755 C63.2796599,124.912755 69.5343178,131.17245 69.5343178,138.893108" id="Fill-24" fill="#FFFFFF"></path>
        <path d="M287.204144,44.3684016 C287.204144,49.005494 283.447621,52.7653173 278.813059,52.7653173 C274.179877,52.7653173 270.422664,49.005494 270.422664,44.3684016 C270.422664,39.732 274.179877,35.9721767 278.813059,35.9721767 C283.447621,35.9721767 287.204144,39.732 287.204144,44.3684016" id="Fill-25" fill="#FFFFFF"></path>
        <path d="M88.1222692,152.879679 C88.1222692,155.747727 85.798085,158.073526 82.9306478,158.073526 C80.0632105,158.073526 77.7390263,155.747727 77.7390263,152.879679 C77.7390263,150.010249 80.0632105,147.683759 82.9306478,147.683759 C85.798085,147.683759 88.1222692,150.010249 88.1222692,152.879679" id="Fill-26" fill="#FFFFFF"></path>
    </g>
    <g id="ASTRAL" stroke="none" fill="none">
        <use fill="black" fill-opacity="1" filter="url(#filter-3)" xlink:href="#path-2"></use>
        <use fill="#FFFFFF" fill-rule="evenodd" xlink:href="#path-2"></use>
    </g>
</svg>
