<svg xmlns="http://www.w3.org/2000/svg" viewBox="0 0 961 172"><g fill-rule="evenodd"><g fill-rule="nonzero"><path d="M38.567 52.551c1.249-4.973 5.971-8.91 14.037-11.7 7.778-2.692 18.325-4.212 31.348-4.52 4.101-.097 11.428-.071 17.379.074C91.29 50.451 85.38 67.653 85.38 86.24c0 3.342.192 6.638.563 9.88-5.365-2.556-10.394-5.16-15.048-7.802-11.33-6.433-19.905-12.763-25.488-18.814-5.79-6.276-8.09-11.979-6.841-16.952ZM241.41 135.22c9.674-13.885 15.348-30.769 15.348-48.98 0-3.659-.23-7.263-.674-10.801 5.286 2.635 11.73 5.996 15.331 8.04 11.33 6.433 19.906 12.763 25.487 18.814 5.789 6.275 8.091 11.979 6.842 16.952-1.249 4.973-5.972 8.91-14.038 11.7-7.778 2.692-18.324 4.212-31.348 4.52-5.35.127-11.012.042-16.948-.245ZM9.156 68.61c7.144 7.747 18.123 15.851 32.63 24.09 13.946 7.92 30.42 15.548 48.641 22.592 11.896 33.057 43.51 56.695 80.643 56.695 15.979 0 30.936-4.378 43.74-11.998 0 0-42.726-7.089-66.026-25.818 3.185.854 6.392 1.688 9.62 2.499 45.36 11.409 89.232 17.242 123.534 16.428 16.677-.393 30.18-2.341 40.136-5.789 10.293-3.563 16.317-8.578 17.907-14.905 1.588-6.327-1.35-13.597-8.737-21.607-7.145-7.746-18.122-15.851-32.63-24.09-11.622-6.6-28.876-14.521-44.286-20.834C245.193 28.348 211.382.49 171.07.49c-25.099 0-47.677 10.799-63.349 28.006-11.47-.811-36.123-2.5-49.26-2.188-16.676.396-30.18 2.344-40.135 5.79C8.033 35.662 2.008 40.678.418 47.004-1.17 53.332 1.77 60.601 9.156 68.611ZM69.534 138.893c0 7.721-6.254 13.981-13.97 13.981-7.716 0-13.97-6.26-13.97-13.98 0-7.722 6.254-13.981 13.97-13.981 7.716 0 13.97 6.26 13.97 13.98M287.204 44.368c0 4.637-3.756 8.397-8.39 8.397s-8.391-3.76-8.391-8.397c0-4.636 3.757-8.396 8.39-8.396 4.635 0 8.391 3.76 8.391 8.396M88.122 152.88a5.193 5.193 0 0 1-5.191 5.194 5.193 5.193 0 0 1-5.192-5.194 5.194 5.194 0 0 1 5.192-5.196 5.194 5.194 0 0 1 5.191 5.196"/></g><path d="M384.456 135h-18.72l34.128-86.4c1.824-4.608 4.392-7.848 7.704-9.72 3.312-1.872 7.56-2.808 12.744-2.808 5.088 0 9.288.936 12.6 2.808 3.312 1.872 5.832 5.112 7.56 9.72l32.832 86.4H454.44l-29.52-78.192c-.864-2.208-2.448-3.312-4.752-3.312s-3.936 1.104-4.896 3.312L384.456 135Zm178.272-97.2v16.992h-49.824c-4.416 0-7.632 1.08-9.648 3.24s-3.024 4.92-3.024 8.28c0 1.44.216 2.856.648 4.248.432 1.392 1.2 2.64 2.304 3.744 1.104 1.104 2.568 1.968 4.392 2.592 1.824.624 4.176.936 7.056.936h22.752c6.624 0 12.048.84 16.272 2.52 4.224 1.68 7.56 3.864 10.008 6.552 2.448 2.688 4.128 5.76 5.04 9.216a40.486 40.486 0 0 1 1.368 10.368c0 4.128-.576 7.92-1.728 11.376-1.152 3.456-2.976 6.456-5.472 9-2.496 2.544-5.688 4.536-9.576 5.976-3.888 1.44-8.616 2.16-14.184 2.16h-54.144v-16.992h54.72c4.608 0 7.992-1.128 10.152-3.384 2.16-2.256 3.24-5.16 3.24-8.712 0-1.536-.24-3.048-.72-4.536a9.244 9.244 0 0 0-2.448-3.888c-1.152-1.104-2.712-1.992-4.68-2.664-1.968-.672-4.44-1.008-7.416-1.008h-22.608c-6.528 0-11.856-.816-15.984-2.448-4.128-1.632-7.368-3.792-9.72-6.48-2.352-2.688-3.984-5.712-4.896-9.072-.912-3.36-1.368-6.72-1.368-10.08 0-4.032.552-7.752 1.656-11.16 1.104-3.408 2.88-6.36 5.328-8.856 2.448-2.496 5.592-4.44 9.432-5.832 3.84-1.392 8.448-2.088 13.824-2.088h49.248Zm92.448 0v16.992h-28.368V135h-17.136V54.792h-28.368V37.8h73.872Zm68.4 0c5.472 0 10.176.792 14.112 2.376 3.936 1.584 7.176 3.696 9.72 6.336 2.544 2.64 4.416 5.736 5.616 9.288 1.2 3.552 1.8 7.248 1.8 11.088 0 3.072-.384 6.12-1.152 9.144a30.199 30.199 0 0 1-3.6 8.496c-1.632 2.64-3.744 4.968-6.336 6.984s-5.76 3.552-9.504 4.608L756.84 135h-18.864L715.8 97.416h-25.344c-1.632 0-2.448.816-2.448 2.448V135h-16.992V96.552c0-5.472 1.2-9.408 3.6-11.808 2.4-2.4 6.288-3.6 11.664-3.6h37.872c2.4 0 4.464-.384 6.192-1.152 1.728-.768 3.12-1.776 4.176-3.024s1.848-2.688 2.376-4.32c.528-1.632.792-3.312.792-5.04 0-3.456-1.08-6.456-3.24-9-2.16-2.544-5.592-3.816-10.296-3.816h-53.28V37.8h52.704Zm60.048 97.2h-18.72l34.128-86.4c1.824-4.608 4.392-7.848 7.704-9.72 3.312-1.872 7.56-2.808 12.744-2.808 5.088 0 9.288.936 12.6 2.808 3.312 1.872 5.832 5.112 7.56 9.72l32.832 86.4h-18.864l-29.52-78.192c-.864-2.208-2.448-3.312-4.752-3.312s-3.936 1.104-4.896 3.312L783.624 135Zm119.232-97.2v63.504c0 2.304.312 4.488.936 6.552a12.22 12.22 0 0 0 3.24 5.328c1.536 1.488 3.576 2.664 6.12 3.528 2.544.864 5.736 1.296 9.576 1.296h37.728V135H921.72c-6.432 0-11.928-.84-16.488-2.52-4.56-1.68-8.28-4.008-11.16-6.984-2.88-2.976-4.968-6.504-6.264-10.584-1.296-4.08-1.944-8.568-1.944-13.464V37.8h16.992Z"/></g></svg>
