<svg width="5200" height="5200" viewBox="0 0 5200 5200" fill="none" xmlns="http://www.w3.org/2000/svg">
<path fill-rule="evenodd" clip-rule="evenodd" d="M1571.76 4054.63C1571.76 4060.89 1566.69 4065.96 1560.44 4065.96C1554.19 4065.96 1549.12 4060.89 1549.12 4054.63C1549.12 4048.38 1554.19 4043.31 1560.44 4043.31C1566.69 4043.31 1571.76 4048.38 1571.76 4054.63Z" fill="white" fill-opacity="0.5"/>
<path fill-rule="evenodd" clip-rule="evenodd" d="M2457.19 3702.52C2457.19 3708.77 2452.12 3713.85 2445.87 3713.85C2439.61 3713.85 2434.53 3708.77 2434.53 3702.52C2434.53 3696.27 2439.61 3691.2 2445.87 3691.2C2452.12 3691.2 2457.19 3696.27 2457.19 3702.52Z" fill="white" fill-opacity="0.5"/>
<path fill-rule="evenodd" clip-rule="evenodd" d="M1283.77 3499.83C1283.77 3506.08 1278.7 3511.15 1272.45 3511.15C1266.19 3511.15 1261.12 3506.08 1261.12 3499.83C1261.12 3493.57 1266.19 3488.49 1272.45 3488.49C1278.7 3488.49 1283.77 3493.57 1283.77 3499.83Z" fill="white" fill-opacity="0.5"/>
<path fill-rule="evenodd" clip-rule="evenodd" d="M1120 3670.55C1120 3692.44 1102.25 3710.19 1080.36 3710.19C1058.47 3710.19 1040.72 3692.44 1040.72 3670.55C1040.72 3648.65 1058.47 3630.92 1080.36 3630.92C1102.25 3630.92 1120 3648.65 1120 3670.55Z" fill="white" fill-opacity="0.5"/>
<path fill-rule="evenodd" clip-rule="evenodd" d="M397.276 441.626C397.276 463.52 379.528 481.267 357.637 481.267C335.748 481.267 318 463.52 318 441.626C318 419.733 335.748 402 357.637 402C379.528 402 397.276 419.733 397.276 441.626Z" fill="white" fill-opacity="0.5"/>
<path fill-rule="evenodd" clip-rule="evenodd" d="M1816.28 2916.63C1816.28 2938.52 1798.53 2956.27 1776.64 2956.27C1754.75 2956.27 1737 2938.52 1737 2916.63C1737 2894.73 1754.75 2877 1776.64 2877C1798.53 2877 1816.28 2894.73 1816.28 2916.63Z" fill="white" fill-opacity="0.5"/>
<path fill-rule="evenodd" clip-rule="evenodd" d="M2009.17 3947.91C2009.17 3954.16 2004.11 3959.23 1997.85 3959.23C1991.6 3959.23 1986.53 3954.16 1986.53 3947.91C1986.53 3941.65 1991.6 3936.58 1997.85 3936.58C2004.11 3936.58 2009.17 3941.65 2009.17 3947.91Z" fill="white" fill-opacity="0.5"/>
<path fill-rule="evenodd" clip-rule="evenodd" d="M2468.64 2956.33C2468.64 2962.58 2463.57 2967.65 2457.32 2967.65C2451.07 2967.65 2446 2962.58 2446 2956.33C2446 2950.07 2451.07 2945 2457.32 2945C2463.57 2945 2468.64 2950.07 2468.64 2956.33Z" fill="white" fill-opacity="0.5"/>
<path fill-rule="evenodd" clip-rule="evenodd" d="M3166.64 2771.33C3166.64 2777.58 3161.57 2782.65 3155.32 2782.65C3149.07 2782.65 3144 2777.58 3144 2771.33C3144 2765.07 3149.07 2760 3155.32 2760C3161.57 2760 3166.64 2765.07 3166.64 2771.33Z" fill="white" fill-opacity="0.5"/>
<path fill-rule="evenodd" clip-rule="evenodd" d="M3438.51 4150.49C3438.51 4156.75 3433.44 4161.81 3427.19 4161.81C3420.93 4161.81 3415.87 4156.75 3415.87 4150.49C3415.87 4144.24 3420.93 4139.17 3427.19 4139.17C3433.44 4139.17 3438.51 4144.24 3438.51 4150.49Z" fill="white" fill-opacity="0.5"/>
<path fill-rule="evenodd" clip-rule="evenodd" d="M3212.64 3476.32C3212.64 3482.58 3207.57 3487.65 3201.32 3487.65C3195.07 3487.65 3190 3482.58 3190 3476.32C3190 3470.07 3195.07 3465 3201.32 3465C3207.57 3465 3212.64 3470.07 3212.64 3476.32Z" fill="white" fill-opacity="0.5"/>
<path fill-rule="evenodd" clip-rule="evenodd" d="M4046.57 4587.95C4046.57 4594.2 4041.51 4599.27 4035.25 4599.27C4029 4599.27 4023.93 4594.2 4023.93 4587.95C4023.93 4581.69 4029 4576.63 4035.25 4576.63C4041.51 4576.63 4046.57 4581.69 4046.57 4587.95Z" fill="white" fill-opacity="0.5"/>
<path fill-rule="evenodd" clip-rule="evenodd" d="M3966.33 2661.17C3966.33 2678.37 3952.39 2692.32 3935.19 2692.32C3917.99 2692.32 3904.05 2678.37 3904.05 2661.17C3904.05 2643.97 3917.99 2630.03 3935.19 2630.03C3952.39 2630.03 3966.33 2643.97 3966.33 2661.17Z" fill="white" fill-opacity="0.5"/>
<path fill-rule="evenodd" clip-rule="evenodd" d="M5049.29 1910.48C5049.29 1916.73 5044.23 1921.8 5037.97 1921.8C5031.72 1921.8 5026.64 1916.73 5026.64 1910.48C5026.64 1904.23 5031.72 1899.15 5037.97 1899.15C5044.23 1899.15 5049.29 1904.23 5049.29 1910.48Z" fill="white" fill-opacity="0.5"/>
<path fill-rule="evenodd" clip-rule="evenodd" d="M4921.25 1483.75C4921.25 1490.01 4916.19 1495.08 4909.93 1495.08C4903.68 1495.08 4898.61 1490.01 4898.61 1483.75C4898.61 1477.49 4903.68 1472.43 4909.93 1472.43C4916.19 1472.43 4921.25 1477.49 4921.25 1483.75Z" fill="white" fill-opacity="0.5"/>
<path fill-rule="evenodd" clip-rule="evenodd" d="M4014.56 331.734C4014.56 337.987 4009.49 343.067 4003.24 343.067C3996.99 343.067 3991.92 337.987 3991.92 331.734C3991.92 325.48 3996.99 320.414 4003.24 320.414C4009.49 320.414 4014.56 325.48 4014.56 331.734Z" fill="white" fill-opacity="0.5"/>
<path fill-rule="evenodd" clip-rule="evenodd" d="M3822.03 422.053C3822.03 445.893 3802.71 465.227 3778.85 465.227C3755.01 465.227 3735.68 445.893 3735.68 422.053C3735.68 398.2 3755.01 378.867 3778.85 378.867C3802.71 378.867 3822.03 398.2 3822.03 422.053Z" fill="white" fill-opacity="0.5"/>
<path fill-rule="evenodd" clip-rule="evenodd" d="M931.763 235.72C931.763 241.973 926.692 247.04 920.437 247.04C914.184 247.04 909.112 241.973 909.112 235.72C909.112 229.466 914.184 224.386 920.437 224.386C926.692 224.386 931.763 229.466 931.763 235.72Z" fill="white" fill-opacity="0.5"/>
<path fill-rule="evenodd" clip-rule="evenodd" d="M249.033 1025.09C249.033 1031.35 243.963 1036.43 237.708 1036.43C231.455 1036.43 226.383 1031.35 226.383 1025.09C226.383 1018.84 231.455 1013.77 237.708 1013.77C243.963 1013.77 249.033 1018.84 249.033 1025.09Z" fill="white" fill-opacity="0.5"/>
<path fill-rule="evenodd" clip-rule="evenodd" d="M1347.59 1175.43C1347.59 1192.87 1333.44 1207.01 1316 1207.01C1298.55 1207.01 1284.4 1192.87 1284.4 1175.43C1284.4 1157.97 1298.55 1143.83 1316 1143.83C1333.44 1143.83 1347.59 1157.97 1347.59 1175.43Z" fill="white" fill-opacity="0.5"/>
<path fill-rule="evenodd" clip-rule="evenodd" d="M4761.18 591.6C4761.18 609.04 4747.04 623.187 4729.59 623.187C4712.15 623.187 4698 609.04 4698 591.6C4698 574.146 4712.15 560 4729.59 560C4747.04 560 4761.18 574.146 4761.18 591.6Z" fill="white" fill-opacity="0.5"/>
<path fill-rule="evenodd" clip-rule="evenodd" d="M1251.77 1675.85C1251.77 1682.11 1246.7 1687.17 1240.44 1687.17C1234.19 1687.17 1229.12 1682.11 1229.12 1675.85C1229.12 1669.6 1234.19 1664.52 1240.44 1664.52C1246.7 1664.52 1251.77 1669.6 1251.77 1675.85Z" fill="white" fill-opacity="0.5"/>
<path fill-rule="evenodd" clip-rule="evenodd" d="M1635.8 3798.52C1635.8 3804.77 1630.72 3809.84 1624.47 3809.84C1618.21 3809.84 1613.15 3804.77 1613.15 3798.52C1613.15 3792.27 1618.21 3787.19 1624.47 3787.19C1630.72 3787.19 1635.8 3792.27 1635.8 3798.52Z" fill="white" fill-opacity="0.5"/>
<path fill-rule="evenodd" clip-rule="evenodd" d="M1187.78 4897.3C1187.78 4903.56 1182.71 4908.63 1176.46 4908.63C1170.2 4908.63 1165.13 4903.56 1165.13 4897.3C1165.13 4891.05 1170.2 4885.98 1176.46 4885.98C1182.71 4885.98 1187.78 4891.05 1187.78 4897.3Z" fill="white" fill-opacity="0.5"/>
<path fill-rule="evenodd" clip-rule="evenodd" d="M2707.57 4827.63C2707.57 4839.82 2697.69 4849.7 2685.49 4849.7C2673.31 4849.7 2663.43 4839.82 2663.43 4827.63C2663.43 4815.44 2673.31 4805.56 2685.49 4805.56C2697.69 4805.56 2707.57 4815.44 2707.57 4827.63Z" fill="white" fill-opacity="0.5"/>
<path fill-rule="evenodd" clip-rule="evenodd" d="M4846.6 4715.92C4846.6 4722.18 4841.52 4727.25 4835.27 4727.25C4829.01 4727.25 4823.95 4722.18 4823.95 4715.92C4823.95 4709.67 4829.01 4704.6 4835.27 4704.6C4841.52 4704.6 4846.6 4709.67 4846.6 4715.92Z" fill="white" fill-opacity="0.5"/>
<path fill-rule="evenodd" clip-rule="evenodd" d="M3640.65 3076.32C3640.65 3082.58 3635.57 3087.65 3629.32 3087.65C3623.07 3087.65 3618 3082.58 3618 3076.32C3618 3070.07 3623.07 3065 3629.32 3065C3635.57 3065 3640.65 3070.07 3640.65 3076.32Z" fill="white" fill-opacity="0.5"/>
<path fill-rule="evenodd" clip-rule="evenodd" d="M3406.49 4310.66C3406.49 4316.91 3401.41 4321.98 3395.16 4321.98C3388.91 4321.98 3383.84 4316.91 3383.84 4310.66C3383.84 4304.4 3388.91 4299.33 3395.16 4299.33C3401.41 4299.33 3406.49 4304.4 3406.49 4310.66Z" fill="white" fill-opacity="0.5"/>
<path fill-rule="evenodd" clip-rule="evenodd" d="M4366.59 2721.19C4366.59 2727.44 4361.51 2732.51 4355.25 2732.51C4349 2732.51 4343.93 2727.44 4343.93 2721.19C4343.93 2714.93 4349 2709.85 4355.25 2709.85C4361.51 2709.85 4366.59 2714.93 4366.59 2721.19Z" fill="white" fill-opacity="0.5"/>
<path fill-rule="evenodd" clip-rule="evenodd" d="M2894.55 1206.41C2894.55 1212.67 2889.48 1217.75 2883.23 1217.75C2876.97 1217.75 2871.91 1212.67 2871.91 1206.41C2871.91 1200.16 2876.97 1195.09 2883.23 1195.09C2889.48 1195.09 2894.55 1200.16 2894.55 1206.41Z" fill="white" fill-opacity="0.5"/>
<path fill-rule="evenodd" clip-rule="evenodd" d="M2622.64 716.32C2622.64 722.573 2617.57 727.653 2611.32 727.653C2605.07 727.653 2600 722.573 2600 716.32C2600 710.067 2605.07 705 2611.32 705C2617.57 705 2622.64 710.067 2622.64 716.32Z" fill="white" fill-opacity="0.5"/>
<path fill-rule="evenodd" clip-rule="evenodd" d="M1411.93 1217.15C1411.93 1223.4 1406.87 1228.47 1400.61 1228.47C1394.36 1228.47 1389.28 1223.4 1389.28 1217.15C1389.28 1210.89 1394.36 1205.81 1400.61 1205.81C1406.87 1205.81 1411.93 1210.89 1411.93 1217.15Z" fill="white" fill-opacity="0.5"/>
<path fill-rule="evenodd" clip-rule="evenodd" d="M709.854 1538.21C709.854 1550.95 699.526 1561.28 686.786 1561.28C674.049 1561.28 663.72 1550.95 663.72 1538.21C663.72 1525.48 674.049 1515.15 686.786 1515.15C699.526 1515.15 709.854 1525.48 709.854 1538.21Z" fill="white" fill-opacity="0.5"/>
<path fill-rule="evenodd" clip-rule="evenodd" d="M1737.13 2147.07C1737.13 2159.8 1726.81 2170.13 1714.07 2170.13C1701.33 2170.13 1691 2159.8 1691 2147.07C1691 2134.33 1701.33 2124 1714.07 2124C1726.81 2124 1737.13 2134.33 1737.13 2147.07Z" fill="white" fill-opacity="0.5"/>
<path fill-rule="evenodd" clip-rule="evenodd" d="M3144.47 2211.73C3144.47 2222.63 3135.63 2231.47 3124.73 2231.47C3113.84 2231.47 3105 2222.63 3105 2211.73C3105 2200.84 3113.84 2192 3124.73 2192C3135.63 2192 3144.47 2200.84 3144.47 2211.73Z" fill="white" fill-opacity="0.5"/>
<path fill-rule="evenodd" clip-rule="evenodd" d="M4693.16 2191.16C4693.16 2202.88 4683.65 2212.39 4671.92 2212.39C4660.19 2212.39 4650.68 2202.88 4650.68 2191.16C4650.68 2179.43 4660.19 2169.92 4671.92 2169.92C4683.65 2169.92 4693.16 2179.43 4693.16 2191.16Z" fill="white" fill-opacity="0.5"/>
<path fill-rule="evenodd" clip-rule="evenodd" d="M3778.48 1299.24C3778.48 1310.96 3768.97 1320.47 3757.24 1320.47C3745.51 1320.47 3736 1310.96 3736 1299.24C3736 1287.51 3745.51 1278 3757.24 1278C3768.97 1278 3778.48 1287.51 3778.48 1299.24Z" fill="white" fill-opacity="0.5"/>
<path fill-rule="evenodd" clip-rule="evenodd" d="M2324.48 2298.24C2324.48 2309.96 2314.97 2319.47 2303.24 2319.47C2291.51 2319.47 2282 2309.96 2282 2298.24C2282 2286.51 2291.51 2277 2303.24 2277C2314.97 2277 2324.48 2286.51 2324.48 2298.24Z" fill="white" fill-opacity="0.5"/>
<path fill-rule="evenodd" clip-rule="evenodd" d="M4771.93 3574.53C4771.93 3580.8 4766.87 3585.87 4760.61 3585.87C4754.36 3585.87 4749.28 3580.8 4749.28 3574.53C4749.28 3568.28 4754.36 3563.21 4760.61 3563.21C4766.87 3563.21 4771.93 3568.28 4771.93 3574.53Z" fill="white" fill-opacity="0.5"/>
<path fill-rule="evenodd" clip-rule="evenodd" d="M3835.93 4183.87C3835.93 4208.54 3815.93 4228.53 3791.27 4228.53C3766.61 4228.53 3746.61 4208.54 3746.61 4183.87C3746.61 4159.21 3766.61 4139.22 3791.27 4139.22C3815.93 4139.22 3835.93 4159.21 3835.93 4183.87Z" fill="white" fill-opacity="0.5"/>
<path fill-rule="evenodd" clip-rule="evenodd" d="M470.789 2750.95C470.789 2761.85 461.945 2770.69 451.039 2770.69C440.132 2770.69 431.287 2761.85 431.287 2750.95C431.287 2740.04 440.132 2731.2 451.039 2731.2C461.945 2731.2 470.789 2740.04 470.789 2750.95Z" fill="white" fill-opacity="0.5"/>
<path fill-rule="evenodd" clip-rule="evenodd" d="M925.585 2437.63C925.585 2449.8 915.72 2459.67 903.552 2459.67C891.385 2459.67 881.521 2449.8 881.521 2437.63C881.521 2425.47 891.385 2415.6 903.552 2415.6C915.72 2415.6 925.585 2425.47 925.585 2437.63Z" fill="white" fill-opacity="0.5"/>
<path fill-rule="evenodd" clip-rule="evenodd" d="M1882.06 683.026C1882.06 695.2 1872.2 705.066 1860.03 705.066C1847.86 705.066 1838 695.2 1838 683.026C1838 670.866 1847.86 661 1860.03 661C1872.2 661 1882.06 670.866 1882.06 683.026Z" fill="white" fill-opacity="0.5"/>
<path fill-rule="evenodd" clip-rule="evenodd" d="M825.048 4694.59C825.048 4700.85 819.976 4705.92 813.723 4705.92C807.469 4705.92 802.397 4700.85 802.397 4694.59C802.397 4688.34 807.469 4683.27 813.723 4683.27C819.976 4683.27 825.048 4688.34 825.048 4694.59Z" fill="white" fill-opacity="0.5"/>
<path fill-rule="evenodd" clip-rule="evenodd" d="M1838.49 1195.76C1838.49 1202.01 1833.43 1207.09 1827.17 1207.09C1820.91 1207.09 1815.84 1202.01 1815.84 1195.76C1815.84 1189.51 1820.91 1184.44 1827.17 1184.44C1833.43 1184.44 1838.49 1189.51 1838.49 1195.76Z" fill="white" fill-opacity="0.5"/>
<path fill-rule="evenodd" clip-rule="evenodd" d="M1658.65 343.32C1658.65 349.573 1653.59 354.653 1647.33 354.653C1641.07 354.653 1636 349.573 1636 343.32C1636 337.067 1641.07 332 1647.33 332C1653.59 332 1658.65 337.067 1658.65 343.32Z" fill="white" fill-opacity="0.5"/>
<path fill-rule="evenodd" clip-rule="evenodd" d="M2232.65 1665.32C2232.65 1671.57 2227.59 1676.65 2221.33 1676.65C2215.07 1676.65 2210 1671.57 2210 1665.32C2210 1659.07 2215.07 1654 2221.33 1654C2227.59 1654 2232.65 1659.07 2232.65 1665.32Z" fill="white" fill-opacity="0.5"/>
<path fill-rule="evenodd" clip-rule="evenodd" d="M2233.17 1163.76C2233.17 1170.01 2228.11 1175.08 2221.85 1175.08C2215.6 1175.08 2210.53 1170.01 2210.53 1163.76C2210.53 1157.51 2215.6 1152.43 2221.85 1152.43C2228.11 1152.43 2233.17 1157.51 2233.17 1163.76Z" fill="white" fill-opacity="0.5"/>
<path fill-rule="evenodd" clip-rule="evenodd" d="M2779.64 453.333C2779.64 459.587 2774.57 464.653 2768.32 464.653C2762.07 464.653 2757 459.587 2757 453.333C2757 447.08 2762.07 442 2768.32 442C2774.57 442 2779.64 447.08 2779.64 453.333Z" fill="white" fill-opacity="0.5"/>
<path fill-rule="evenodd" clip-rule="evenodd" d="M2691.84 1462.49C2691.84 1468.75 2686.77 1473.83 2680.52 1473.83C2674.27 1473.83 2669.2 1468.75 2669.2 1462.49C2669.2 1456.24 2674.27 1451.17 2680.52 1451.17C2686.77 1451.17 2691.84 1456.24 2691.84 1462.49Z" fill="white" fill-opacity="0.5"/>
</svg>
